<svg width="160" height="55" viewBox="0 0 160 55" fill="none" xmlns="http://www.w3.org/2000/svg">
<path d="M152.98 24L146.495 40H149.646L152.919 31.6308L153.01 31.3846L154.448 35.0418L155.213 37.0813L156.314 40H159.495L152.98 24Z" fill="white"/>
<path d="M88.7951 25.5121C88.1284 24.9846 87.3285 24.5626 86.4618 24.3516C85.5951 24.1407 84.1618 24 82.0618 24H78.4951V40H82.6951C84.4285 40 85.6951 39.8945 86.5285 39.6484C87.3951 39.4022 88.1618 39.0154 88.8285 38.4879C89.6951 37.7846 90.3951 36.8352 90.8285 35.7451C91.2618 34.6549 91.4951 33.389 91.4951 32.0176C91.4951 30.611 91.2618 29.3451 90.8285 28.2549C90.3618 27.1648 89.6951 26.2154 88.7951 25.5121ZM87.8285 34.3385C87.5951 34.9714 87.2284 35.5341 86.7284 35.956C86.3951 36.2725 85.9618 36.4835 85.4951 36.6242C84.9951 36.7648 84.2285 36.8352 83.1951 36.8352H81.4951V27.1648H82.9618C84.1285 27.1648 84.9618 27.2352 85.4951 27.3758C85.9951 27.5165 86.4285 27.7275 86.7618 28.044C87.2284 28.4659 87.5951 29.0286 87.8618 29.6615C88.0618 30.3297 88.1951 31.1033 88.1951 31.9824C88.1951 32.8615 88.0618 33.6703 87.8285 34.3385Z" fill="white"/>
<path d="M99.4951 39.9997H108.495V37H102.495V33H108.495V30.0195H102.495V27H108.495V24H99.4951V39.9997Z" fill="white"/>
<path d="M120.789 36.8703V27.0242L117.495 24V40H126.495L124.729 36.8703H120.789Z" fill="white"/>
<path d="M130.495 24L130.526 27.0242H134.574V40H137.54V27.0242H141.495L141.464 24H130.495Z" fill="white"/>
<path d="M85.7756 16.9139H88.2146V19H88.9951V14H88.2146V16.1854H85.7756V14H84.9951V19H85.7756V16.9139Z" fill="white"/>
<path d="M78.4951 14.6954H80.0813V19H80.9434V14.6954H82.4951V14H78.4951V14.6954Z" fill="white"/>
<path d="M91.4951 19H94.4951V18.2715H92.3523V16.649H94.4951V15.9536H92.3523V14.6954H94.4951V14H91.4951V19Z" fill="white"/>
<path fill-rule="evenodd" clip-rule="evenodd" d="M31.2193 0L7.59378 41.19L5.4464 44.9339H9.76238H34.3523L31.4801 39.9339H14.0784L34.1036 5.02087L31.2193 0ZM62.8056 54.9965L39.1539 13.8282L36.9901 10.0618L34.8306 13.8213L22.7253 34.8956H28.4914L36.9959 20.09L57.0501 54.9965H62.8056ZM46.9276 54.9887L0.5 54.9886L3.37767 49.9792L42.6111 49.9792L34.105 35.1718L36.9881 30.1529L49.0954 51.2292L51.255 54.9887H46.9276Z" fill="white"/>
</svg>
